<svg width="3303" height="629" viewBox="0 0 3303 629" fill="none" xmlns="http://www.w3.org/2000/svg">
<g filter="url(#filter0_d_268_9)">
<path d="M265.023 420L266.977 314.043H252.816L238.656 359.941C231.82 381.751 222.055 395.749 209.359 401.934C201.872 405.189 193.246 406.816 183.48 406.816H133.188V140.215H174.691V127.031H25.7656V140.215H64.8281V406.816H25.7656V420H265.023ZM456.43 424.883C480.193 424.883 495.004 416.257 500.863 399.004C502.816 392.493 504.281 384.193 505.258 374.102L492.562 373.613C490.609 396.074 484.913 407.467 475.473 407.793C468.311 407.142 464.73 399.004 464.73 383.379V281.328C464.73 240.638 445.85 215.573 408.09 206.133C398.324 203.854 387.745 202.715 376.352 202.715C332.081 202.715 304.249 212.318 292.855 231.523C289.926 236.406 288.461 241.615 288.461 247.148C288.461 259.844 294.483 267.819 306.527 271.074C309.457 272.051 312.549 272.539 315.805 272.539C329.802 272.539 339.242 265.703 344.125 252.031C344.776 250.078 345.753 246.823 347.055 242.266C350.635 229.245 355.193 221.107 360.727 217.852C364.307 216.224 368.376 215.41 372.934 215.41C388.233 215.41 397.51 224.688 400.766 243.242C402.068 250.078 402.719 258.216 402.719 267.656V299.395C319.06 301.022 277.068 323.158 276.742 365.801C276.742 394.772 289.438 413.327 314.828 421.465C322.315 423.743 330.616 424.883 339.73 424.883C367.4 424.883 387.745 414.466 400.766 393.633C403.37 389.401 405.486 385.007 407.113 380.449C413.949 408.444 430.388 423.255 456.43 424.883ZM365.121 403.887C348.845 403.236 340.544 388.75 340.219 360.43C340.219 338.945 349.008 324.948 366.586 318.438C376.026 315.508 388.07 313.717 402.719 313.066V360.43C396.534 383.216 386.605 397.214 372.934 402.422C370.004 403.398 367.4 403.887 365.121 403.887ZM777.719 420V406.816H720.102V276.445H813.852V261.797H720.102V140.215H775.277C804.574 140.215 823.943 155.514 833.383 186.113C833.708 186.439 833.871 186.764 833.871 187.09L844.613 223.223H858.773L856.82 127.031H612.68V140.215H651.742V406.816H612.68V420H777.719ZM985.238 215.41C1006.07 216.061 1016.65 233.802 1016.98 268.633C1016.98 283.932 1012.42 293.372 1003.3 296.953C996.794 299.232 987.029 300.046 974.008 299.395L942.758 297.93C945.036 243.893 959.197 216.387 985.238 215.41ZM1076.55 369.707L1064.83 365.801C1055.71 385.658 1041.39 399.167 1021.86 406.328C1014.05 409.258 1006.07 410.723 997.934 410.723C971.892 410.723 955.128 394.121 947.641 360.918C944.711 347.246 943.083 330.97 942.758 312.09L987.68 313.555C1040.09 315.182 1070.52 306.882 1078.99 288.652C1080.94 284.095 1081.92 279.049 1081.92 273.516C1081.92 245.846 1067.76 225.664 1039.44 212.969C1023.49 206.133 1005.42 202.715 985.238 202.715C948.454 202.715 919.809 215.247 899.301 240.312C883.676 259.844 875.863 284.095 875.863 313.066C875.863 360.267 893.604 393.145 929.086 411.699C946.013 420.488 965.219 424.883 986.703 424.883C1024.79 424.883 1052.13 411.536 1068.73 384.844C1071.99 379.961 1074.59 374.915 1076.55 369.707ZM1229.87 407.305H1193.73V301.836C1196.01 267.656 1204.31 246.823 1218.64 239.336C1220.92 238.359 1223.03 237.871 1224.98 237.871C1228.57 237.871 1232.47 241.615 1236.7 249.102C1242.56 259.518 1248.91 266.029 1255.75 268.633C1259 269.609 1262.58 270.098 1266.49 270.098C1279.51 270.098 1288.79 263.913 1294.32 251.543C1296.27 247.311 1297.25 242.917 1297.25 238.359C1297.25 222.083 1289.27 211.829 1273.32 207.598C1269.42 206.621 1265.35 206.133 1261.12 206.133C1240.93 206.133 1223.19 214.108 1207.89 230.059C1201.06 237.871 1195.85 246.335 1192.27 255.449L1188.85 210.039H1103.4V222.734H1131.72V381.914C1131.72 396.237 1126.03 404.375 1114.63 406.328C1111.38 406.979 1107.63 407.305 1103.4 407.305V420H1241.59C1241.59 412.513 1239.47 408.444 1235.24 407.793C1233.61 407.467 1231.82 407.305 1229.87 407.305ZM1408.58 407.305H1399.79L1400.28 281.328C1402.23 255.612 1410.69 238.848 1425.67 231.035C1429.9 228.757 1434.13 227.617 1438.36 227.617C1450.41 227.617 1459.03 235.104 1464.24 250.078C1466.52 257.24 1467.66 265.215 1467.66 274.004V381.914C1467.66 395.26 1464.57 403.236 1458.38 405.84C1455.45 406.816 1451.38 407.305 1446.18 407.305V420H1549.69C1549.69 412.513 1547.58 408.444 1543.34 407.793C1541.39 407.467 1539.44 407.305 1537.48 407.305H1529.18V282.305V278.887C1531.46 251.868 1540.25 235.104 1555.55 228.594C1558.81 227.292 1562.06 226.641 1565.32 226.641C1579.31 226.641 1588.92 234.941 1594.12 251.543C1596.08 258.379 1597.05 265.866 1597.05 274.004V381.914C1597.05 395.26 1593.96 403.236 1587.78 405.84C1584.85 406.816 1580.78 407.305 1575.57 407.305V420H1686.9C1686.9 412.513 1684.78 408.444 1680.55 407.793C1678.6 407.467 1676.64 407.305 1674.69 407.305H1658.58V279.863C1658.58 247.962 1648 225.339 1626.84 211.992C1617.07 205.807 1606.49 202.715 1595.1 202.715C1563.53 203.04 1539.93 218.177 1524.3 248.125C1516.49 225.013 1502.65 210.527 1482.8 204.668C1477.59 203.366 1472.38 202.715 1467.17 202.715C1435.92 203.04 1413.14 217.363 1398.81 245.684L1396.37 210.039H1309.46V222.734H1337.78V381.914C1337.78 396.888 1330.78 405.189 1316.78 406.816C1314.5 407.142 1312.06 407.305 1309.46 407.305V420H1420.3C1420.3 412.513 1418.18 408.444 1413.95 407.793C1412.32 407.467 1410.53 407.305 1408.58 407.305ZM1818.25 215.41C1839.08 216.061 1849.66 233.802 1849.98 268.633C1849.98 283.932 1845.43 293.372 1836.31 296.953C1829.8 299.232 1820.04 300.046 1807.02 299.395L1775.77 297.93C1778.04 243.893 1792.2 216.387 1818.25 215.41ZM1909.55 369.707L1897.84 365.801C1888.72 385.658 1874.4 399.167 1854.87 406.328C1847.05 409.258 1839.08 410.723 1830.94 410.723C1804.9 410.723 1788.14 394.121 1780.65 360.918C1777.72 347.246 1776.09 330.97 1775.77 312.09L1820.69 313.555C1873.1 315.182 1903.53 306.882 1912 288.652C1913.95 284.095 1914.93 279.049 1914.93 273.516C1914.93 245.846 1900.77 225.664 1872.45 212.969C1856.49 206.133 1838.43 202.715 1818.25 202.715C1781.46 202.715 1752.82 215.247 1732.31 240.312C1716.68 259.844 1708.87 284.095 1708.87 313.066C1708.87 360.267 1726.61 393.145 1762.09 411.699C1779.02 420.488 1798.23 424.883 1819.71 424.883C1857.8 424.883 1885.14 411.536 1901.74 384.844C1905 379.961 1907.6 374.915 1909.55 369.707ZM2287.97 192.949C2287.97 162.676 2271.21 142.656 2237.68 132.891C2223.68 128.984 2207.73 127.031 2189.83 127.031H2031.62V140.215H2070.69V406.816H2031.62V420H2198.62C2243.21 420 2275.44 406.816 2295.3 380.449C2305.06 366.777 2309.95 351.803 2309.95 335.527C2309.95 299.395 2290.25 276.12 2250.86 265.703C2243.7 263.75 2236.21 262.285 2228.4 261.309C2257.7 251.868 2276.42 235.755 2284.55 212.969C2286.83 206.133 2287.97 199.46 2287.97 192.949ZM2162.48 140.215C2198.62 140.866 2216.85 159.746 2217.17 196.855C2217.17 227.454 2205.78 246.009 2182.99 252.52C2177.78 253.822 2172.25 254.473 2166.39 254.473H2139.05V140.215H2162.48ZM2179.09 268.145C2205.13 268.145 2222.38 280.352 2230.84 304.766C2233.77 313.229 2235.24 322.344 2235.24 332.109C2235.24 376.38 2218.31 400.957 2184.46 405.84C2180.23 406.491 2175.99 406.816 2171.76 406.816H2139.05V268.145H2179.09ZM2571.18 420L2573.13 314.043H2558.97L2544.81 359.941C2537.97 381.751 2528.21 395.749 2515.51 401.934C2508.02 405.189 2499.4 406.816 2489.63 406.816H2439.34V140.215H2480.84V127.031H2331.92V140.215H2370.98V406.816H2331.92V420H2571.18ZM2578.01 140.215H2617.07V312.578C2617.73 387.122 2658.9 424.557 2740.61 424.883C2793.02 424.883 2826.06 404.863 2839.73 364.824C2844.94 348.548 2847.54 328.854 2847.54 305.742V140.215H2886.61V127.031H2790.41V140.215H2829.48V308.672C2829.15 376.055 2802.95 409.909 2750.86 410.234C2717.99 410.234 2697.64 392.331 2689.83 356.523C2686.9 343.177 2685.43 327.227 2685.43 308.672V140.215H2724.5V127.031H2578.01V140.215ZM3276.25 127.031H3171.27L3083.87 336.992L2981.33 127.031H2893.93V140.215H2932.99V406.816H2893.93V420H2992.56C2990.61 411.862 2986.21 407.467 2979.38 406.816H2953.5V222.734L3057.5 424.883H3066.29L3171.27 174.883V406.816H3132.21V420H3276.25C3274.3 411.862 3269.91 407.467 3263.07 406.816H3237.19V140.215H3276.25V127.031Z" fill="white"/>
</g>
<g filter="url(#filter1_d_268_9)">
<path d="M2237.89 544.586L2237.43 522.273H2179.32V525.411H2188.62V588.862H2179.32V592H2237.43L2237.89 569.688H2234.52L2231.85 577.706C2229.84 583.672 2226.62 587.235 2222.21 588.397C2220.89 588.707 2219.49 588.862 2218.02 588.862H2204.89V557.834H2227.2V554.348H2204.89V525.411H2218.02C2224.38 525.411 2228.75 528.433 2231.15 534.476C2231.46 535.173 2231.74 535.87 2231.97 536.567L2234.52 544.586H2237.89ZM2223.37 511.582C2225 510.342 2225.85 508.715 2225.92 506.701C2225.92 504.067 2224.8 502.053 2222.55 500.658C2221.55 500.038 2220.5 499.729 2219.42 499.729C2218.18 499.806 2216.98 500.232 2215.81 501.007C2214.81 501.782 2212.72 504.028 2209.54 507.747C2206.52 511.233 2203.38 514.41 2200.13 517.276L2201.87 519.833C2204.12 518.748 2209.19 516.928 2217.09 514.371C2220.11 513.286 2222.21 512.357 2223.37 511.582ZM2279.26 588.979H2273.45V516.463H2249.63V519.484H2258.69V582.703C2258.69 585.88 2257.41 587.816 2254.86 588.514C2253.54 588.824 2251.8 588.979 2249.63 588.979V592H2282.05C2282.05 590.218 2281.55 589.25 2280.54 589.095C2280.15 589.017 2279.73 588.979 2279.26 588.979ZM2318.42 543.308C2323.38 543.463 2325.9 547.685 2325.97 555.975C2325.97 559.616 2324.89 561.863 2322.72 562.715C2321.17 563.257 2318.85 563.451 2315.75 563.296L2308.31 562.947C2308.85 550.087 2312.22 543.54 2318.42 543.308ZM2340.15 580.03L2337.36 579.101C2335.19 583.826 2331.78 587.042 2327.14 588.746C2325.28 589.443 2323.38 589.792 2321.44 589.792C2315.24 589.792 2311.25 585.841 2309.47 577.938C2308.77 574.685 2308.39 570.811 2308.31 566.317L2319 566.666C2331.47 567.053 2338.72 565.078 2340.73 560.739C2341.2 559.655 2341.43 558.454 2341.43 557.137C2341.43 550.551 2338.06 545.748 2331.32 542.727C2327.52 541.1 2323.22 540.286 2318.42 540.286C2309.66 540.286 2302.85 543.269 2297.97 549.234C2294.25 553.883 2292.39 559.655 2292.39 566.55C2292.39 577.784 2296.61 585.608 2305.06 590.024C2309.08 592.116 2313.65 593.162 2318.77 593.162C2327.83 593.162 2334.34 589.986 2338.29 583.633C2339.07 582.471 2339.69 581.27 2340.15 580.03ZM2376.06 544.935V542.029H2349.21V544.935H2353.74L2368.39 584.098C2370.09 588.514 2371.45 591.07 2372.45 591.768C2373.31 592.31 2374.54 592.581 2376.17 592.581H2380.36L2397.21 548.305C2397.98 546.368 2398.99 545.283 2400.23 545.051C2400.69 544.973 2401.16 544.935 2401.62 544.935C2402.86 544.935 2403.56 544.857 2403.71 544.702C2403.87 544.237 2403.95 543.346 2403.95 542.029H2385.12V544.935H2394.65L2380.94 580.03L2368.15 544.935H2376.06ZM2454.03 593.162C2459.68 593.162 2463.21 591.109 2464.6 587.003C2465.07 585.453 2465.42 583.478 2465.65 581.076L2462.63 580.96C2462.16 586.306 2460.81 589.017 2458.56 589.095C2456.86 588.94 2456 587.003 2456 583.284V558.996C2456 549.312 2451.51 543.346 2442.52 541.1C2440.2 540.557 2437.68 540.286 2434.97 540.286C2424.43 540.286 2417.81 542.572 2415.1 547.143C2414.4 548.305 2414.05 549.544 2414.05 550.861C2414.05 553.883 2415.48 555.781 2418.35 556.556C2419.05 556.788 2419.78 556.904 2420.56 556.904C2423.89 556.904 2426.14 555.277 2427.3 552.023C2427.45 551.559 2427.69 550.784 2428 549.699C2428.85 546.6 2429.93 544.663 2431.25 543.889C2432.1 543.501 2433.07 543.308 2434.16 543.308C2437.8 543.308 2440.01 545.516 2440.78 549.932C2441.09 551.559 2441.25 553.495 2441.25 555.742V563.296C2421.33 563.683 2411.34 568.951 2411.26 579.101C2411.26 585.996 2414.28 590.412 2420.33 592.349C2422.11 592.891 2424.08 593.162 2426.25 593.162C2432.84 593.162 2437.68 590.683 2440.78 585.725C2441.4 584.717 2441.9 583.672 2442.29 582.587C2443.92 589.25 2447.83 592.775 2454.03 593.162ZM2432.3 588.165C2428.42 588.01 2426.45 584.562 2426.37 577.822C2426.37 572.709 2428.46 569.378 2432.65 567.828C2434.89 567.131 2437.76 566.705 2441.25 566.55V577.822C2439.77 583.245 2437.41 586.577 2434.16 587.816C2433.46 588.049 2432.84 588.165 2432.3 588.165ZM2490.75 559.926C2490.75 552.256 2491.6 547.414 2493.3 545.399C2494.54 544.005 2496.36 543.308 2498.76 543.308C2502.64 543.308 2505.08 545.09 2506.09 548.653C2506.63 550.823 2506.9 554.464 2506.9 559.577C2506.9 567.402 2505.97 572.36 2504.11 574.452C2502.79 575.769 2500.97 576.428 2498.65 576.428C2494.85 576.428 2492.49 574.646 2491.56 571.082C2491.02 568.99 2490.75 565.271 2490.75 559.926ZM2499.23 540.286C2490.24 540.286 2483.66 543.153 2479.47 548.886C2477.15 552.062 2475.99 555.626 2475.99 559.577C2475.99 565.155 2478.7 570.036 2484.12 574.22C2485.13 574.994 2486.18 575.692 2487.26 576.312H2487.14C2482.57 576.234 2479.4 578.248 2477.61 582.354C2476.99 583.904 2476.68 585.453 2476.68 587.003C2476.76 590.722 2478.2 593.743 2480.98 596.067C2478.97 598.469 2477.96 600.832 2477.96 603.156C2477.96 607.34 2480.71 610.478 2486.21 612.569C2489.93 613.964 2494.43 614.661 2499.69 614.661C2512.4 614.661 2520.61 611.678 2524.33 605.713C2525.49 603.854 2526.07 601.917 2526.07 599.902C2526.07 592.077 2521.81 587.623 2513.29 586.538C2512.28 586.383 2511.24 586.306 2510.15 586.306L2486.1 585.841C2484.08 585.763 2482.88 584.872 2482.5 583.168C2482.42 582.936 2482.38 582.703 2482.38 582.471C2482.38 580.689 2483.35 579.682 2485.28 579.449C2485.59 579.372 2485.9 579.333 2486.21 579.333L2498.65 579.449C2507.17 579.449 2513.6 576.544 2517.94 570.733C2520.42 567.325 2521.66 563.528 2521.66 559.345C2521.58 553.689 2519.45 549.041 2515.27 545.399C2516.66 543.23 2518.29 542.107 2520.15 542.029C2521.15 542.029 2522.39 542.688 2523.87 544.005C2525.03 544.935 2526.11 545.399 2527.12 545.399C2529.44 545.399 2530.88 544.315 2531.42 542.146C2531.5 541.758 2531.54 541.371 2531.54 540.983C2531.54 538.194 2530.18 536.219 2527.47 535.057C2526.23 534.514 2524.87 534.243 2523.4 534.243C2519.37 534.243 2516.24 536.567 2513.99 541.216C2513.6 542.068 2513.25 542.92 2512.94 543.772C2509.22 541.448 2504.65 540.286 2499.23 540.286ZM2499.69 611.523C2490.24 611.523 2484.55 609.432 2482.61 605.248C2482.22 604.396 2482.03 603.544 2482.03 602.691C2482.03 601.064 2482.61 599.438 2483.77 597.811C2485.32 598.43 2486.95 598.74 2488.65 598.74L2512.13 598.973C2516.62 598.973 2519.26 599.67 2520.03 601.064C2520.34 601.607 2520.5 602.265 2520.5 603.04C2520.5 606.681 2516.89 609.199 2509.69 610.594C2506.67 611.214 2503.34 611.523 2499.69 611.523ZM2564.07 543.308C2569.03 543.463 2571.55 547.685 2571.62 555.975C2571.62 559.616 2570.54 561.863 2568.37 562.715C2566.82 563.257 2564.5 563.451 2561.4 563.296L2553.96 562.947C2554.5 550.087 2557.87 543.54 2564.07 543.308ZM2585.8 580.03L2583.01 579.101C2580.84 583.826 2577.43 587.042 2572.79 588.746C2570.93 589.443 2569.03 589.792 2567.09 589.792C2560.89 589.792 2556.9 585.841 2555.12 577.938C2554.43 574.685 2554.04 570.811 2553.96 566.317L2564.65 566.666C2577.13 567.053 2584.37 565.078 2586.38 560.739C2586.85 559.655 2587.08 558.454 2587.08 557.137C2587.08 550.551 2583.71 545.748 2576.97 542.727C2573.17 541.1 2568.87 540.286 2564.07 540.286C2555.32 540.286 2548.5 543.269 2543.62 549.234C2539.9 553.883 2538.04 559.655 2538.04 566.55C2538.04 577.784 2542.26 585.608 2550.71 590.024C2554.74 592.116 2559.31 593.162 2564.42 593.162C2573.48 593.162 2579.99 589.986 2583.94 583.633C2584.72 582.471 2585.34 581.27 2585.8 580.03ZM2685.39 587.468C2685.31 590.412 2685.97 592.039 2687.36 592.349C2687.9 592.504 2688.6 592.581 2689.45 592.581V569.688H2685.62C2682.75 580.456 2677.68 586.848 2670.39 588.862C2668.38 589.405 2666.13 589.676 2663.65 589.676C2653.82 589.676 2647.66 584.098 2645.18 572.941C2644.25 568.525 2643.78 563.063 2643.78 556.556C2643.86 535.328 2650.79 524.675 2664.58 524.598C2671.87 524.598 2677.25 527.58 2680.74 533.546C2682.36 536.412 2683.8 540.092 2685.04 544.586H2689.1L2688.76 521.692C2686.74 521.692 2685.54 522.312 2685.15 523.552C2685 524.326 2684.96 525.334 2685.04 526.573C2678.3 522.932 2670.86 521.111 2662.72 521.111C2649.71 521.111 2639.75 525.644 2632.86 534.708C2627.98 541.216 2625.54 548.692 2625.54 557.137C2625.54 567.131 2628.75 575.537 2635.18 582.354C2642.08 589.56 2651.14 593.162 2662.38 593.162C2670.36 593.162 2678.03 591.264 2685.39 587.468ZM2723.38 588.979H2720.48V561.088C2720.48 554.27 2722.57 549.738 2726.75 547.491C2728.07 546.794 2729.35 546.445 2730.59 546.445C2735.31 546.445 2737.95 549.351 2738.49 555.161C2738.57 555.781 2738.61 556.478 2738.61 557.253V582.936C2738.61 586.035 2738.14 587.855 2737.21 588.397C2736.44 588.785 2735.39 588.979 2734.07 588.979V592H2760.1C2760.1 590.218 2759.6 589.25 2758.59 589.095C2758.13 589.017 2757.66 588.979 2757.2 588.979H2753.36V559.229C2753.36 549.544 2749.92 543.54 2743.02 541.216C2741.32 540.596 2739.46 540.286 2737.44 540.286C2731.17 540.286 2726.17 542.688 2722.45 547.491C2721.68 548.576 2721.02 549.66 2720.48 550.745V516.463H2698.86V519.484H2705.72V582.936C2705.72 586.577 2703.97 588.552 2700.49 588.862C2699.95 588.94 2699.4 588.979 2698.86 588.979V592H2726.17C2726.17 590.218 2725.67 589.25 2724.66 589.095C2724.27 589.017 2723.85 588.979 2723.38 588.979ZM2811.7 593.162C2817.35 593.162 2820.88 591.109 2822.27 587.003C2822.74 585.453 2823.09 583.478 2823.32 581.076L2820.3 580.96C2819.83 586.306 2818.48 589.017 2816.23 589.095C2814.53 588.94 2813.67 587.003 2813.67 583.284V558.996C2813.67 549.312 2809.18 543.346 2800.19 541.1C2797.87 540.557 2795.35 540.286 2792.64 540.286C2782.1 540.286 2775.48 542.572 2772.77 547.143C2772.07 548.305 2771.72 549.544 2771.72 550.861C2771.72 553.883 2773.15 555.781 2776.02 556.556C2776.72 556.788 2777.45 556.904 2778.23 556.904C2781.56 556.904 2783.81 555.277 2784.97 552.023C2785.12 551.559 2785.36 550.784 2785.67 549.699C2786.52 546.6 2787.6 544.663 2788.92 543.889C2789.77 543.501 2790.74 543.308 2791.83 543.308C2795.47 543.308 2797.67 545.516 2798.45 549.932C2798.76 551.559 2798.91 553.495 2798.91 555.742V563.296C2779 563.683 2769.01 568.951 2768.93 579.101C2768.93 585.996 2771.95 590.412 2778 592.349C2779.78 592.891 2781.75 593.162 2783.92 593.162C2790.51 593.162 2795.35 590.683 2798.45 585.725C2799.07 584.717 2799.57 583.672 2799.96 582.587C2801.59 589.25 2805.5 592.775 2811.7 593.162ZM2789.97 588.165C2786.09 588.01 2784.12 584.562 2784.04 577.822C2784.04 572.709 2786.13 569.378 2790.31 567.828C2792.56 567.131 2795.43 566.705 2798.91 566.55V577.822C2797.44 583.245 2795.08 586.577 2791.83 587.816C2791.13 588.049 2790.51 588.165 2789.97 588.165ZM2861.08 588.979H2852.48V563.877C2853.03 555.742 2855 550.784 2858.41 549.002C2858.95 548.77 2859.46 548.653 2859.92 548.653C2860.77 548.653 2861.7 549.544 2862.71 551.326C2864.1 553.805 2865.61 555.355 2867.24 555.975C2868.02 556.207 2868.87 556.323 2869.8 556.323C2872.9 556.323 2875.11 554.851 2876.42 551.907C2876.89 550.9 2877.12 549.854 2877.12 548.77C2877.12 544.896 2875.22 542.455 2871.43 541.448C2870.5 541.216 2869.53 541.1 2868.52 541.1C2863.72 541.1 2859.49 542.998 2855.85 546.794C2854.23 548.653 2852.99 550.668 2852.13 552.837L2851.32 542.029H2830.98V545.051H2837.72V582.936C2837.72 586.344 2836.37 588.281 2833.66 588.746C2832.88 588.901 2831.99 588.979 2830.98 588.979V592H2863.87C2863.87 590.218 2863.37 589.25 2862.36 589.095C2861.97 589.017 2861.55 588.979 2861.08 588.979ZM2901.87 566.782C2901.87 555.936 2903.19 549.002 2905.82 545.98C2907.45 544.199 2909.73 543.308 2912.68 543.308C2917.63 543.308 2920.81 545.826 2922.2 550.861C2923.13 554.115 2923.6 559.267 2923.6 566.317C2923.6 577.629 2922.13 584.756 2919.18 587.7C2917.48 589.327 2915.27 590.141 2912.56 590.141C2907.76 590.141 2904.66 587.661 2903.26 582.703C2902.33 579.372 2901.87 574.065 2901.87 566.782ZM2913.26 540.286C2903.73 540.286 2896.41 543.54 2891.29 550.048C2887.73 554.696 2885.95 560.119 2885.95 566.317C2885.95 575.072 2888.97 582.006 2895.01 587.119C2899.81 591.148 2905.55 593.162 2912.21 593.162C2921.35 593.162 2928.52 589.869 2933.71 583.284C2937.58 578.326 2939.52 572.593 2939.52 566.085C2939.52 557.408 2936.46 550.629 2930.34 545.748C2925.61 542.107 2919.92 540.286 2913.26 540.286ZM2979.14 588.979H2973.33V516.463H2949.51V519.484H2958.57V582.703C2958.57 585.88 2957.3 587.816 2954.74 588.514C2953.42 588.824 2951.68 588.979 2949.51 588.979V592H2981.93C2981.93 590.218 2981.43 589.25 2980.42 589.095C2980.03 589.017 2979.61 588.979 2979.14 588.979ZM3033.87 593.162C3039.53 593.162 3043.06 591.109 3044.45 587.003C3044.91 585.453 3045.26 583.478 3045.5 581.076L3042.47 580.96C3042.01 586.306 3040.65 589.017 3038.41 589.095C3036.7 588.94 3035.85 587.003 3035.85 583.284V558.996C3035.85 549.312 3031.36 543.346 3022.37 541.1C3020.05 540.557 3017.53 540.286 3014.82 540.286C3004.28 540.286 2997.66 542.572 2994.94 547.143C2994.25 548.305 2993.9 549.544 2993.9 550.861C2993.9 553.883 2995.33 555.781 2998.2 556.556C2998.89 556.788 2999.63 556.904 3000.41 556.904C3003.74 556.904 3005.98 555.277 3007.15 552.023C3007.3 551.559 3007.53 550.784 3007.84 549.699C3008.7 546.6 3009.78 544.663 3011.1 543.889C3011.95 543.501 3012.92 543.308 3014 543.308C3017.64 543.308 3019.85 545.516 3020.63 549.932C3020.94 551.559 3021.09 553.495 3021.09 555.742V563.296C3001.18 563.683 2991.19 568.951 2991.11 579.101C2991.11 585.996 2994.13 590.412 3000.17 592.349C3001.96 592.891 3003.93 593.162 3006.1 593.162C3012.69 593.162 3017.53 590.683 3020.63 585.725C3021.25 584.717 3021.75 583.672 3022.14 582.587C3023.76 589.25 3027.68 592.775 3033.87 593.162ZM3012.14 588.165C3008.27 588.01 3006.29 584.562 3006.22 577.822C3006.22 572.709 3008.31 569.378 3012.49 567.828C3014.74 567.131 3017.6 566.705 3021.09 566.55V577.822C3019.62 583.245 3017.26 586.577 3014 587.816C3013.31 588.049 3012.69 588.165 3012.14 588.165ZM3079.54 588.979H3075.24V542.029H3053.74V545.051H3060.48V582.936C3060.48 586.344 3059.13 588.281 3056.41 588.746C3055.64 588.901 3054.75 588.979 3053.74 588.979V592H3082.33C3082.33 590.218 3081.83 589.25 3080.82 589.095C3080.43 589.017 3080.01 588.979 3079.54 588.979ZM3076.29 526.806C3076.29 523.397 3074.78 520.879 3071.75 519.252C3070.44 518.477 3069.04 518.09 3067.57 518.09C3064.24 518.09 3061.72 519.601 3060.02 522.622C3059.32 523.939 3058.97 525.334 3058.97 526.806C3058.97 530.215 3060.48 532.694 3063.5 534.243C3064.82 534.94 3066.18 535.289 3067.57 535.289C3070.98 535.289 3073.5 533.856 3075.12 530.989C3075.9 529.672 3076.29 528.278 3076.29 526.806ZM3112.19 589.908C3117.38 589.908 3120.36 588.049 3121.14 584.33C3121.22 583.788 3121.26 583.284 3121.26 582.819C3121.26 578.868 3118.78 575.576 3113.82 572.941C3112.73 572.322 3110.99 571.508 3108.59 570.501C3102.78 567.944 3098.94 565.581 3097.08 563.412C3095.07 561.088 3094.06 558.338 3094.06 555.161C3094.06 548.576 3097.66 544.121 3104.87 541.797C3107.89 540.79 3111.26 540.286 3114.98 540.286C3121.02 540.286 3125.75 541.371 3129.16 543.54C3129.16 541.216 3129.86 539.938 3131.25 539.705C3131.56 539.628 3131.87 539.589 3132.18 539.589V554.115H3128.46C3128.15 547.065 3124.32 543.501 3116.96 543.424C3112 543.424 3108.94 545.051 3107.78 548.305C3107.54 549.079 3107.43 549.854 3107.43 550.629C3107.43 553.96 3109.75 556.788 3114.4 559.112C3115.33 559.655 3116.88 560.391 3119.05 561.32C3125.09 564.032 3129.12 566.511 3131.13 568.758C3133.46 571.392 3134.62 574.53 3134.62 578.171C3134.62 584.911 3131.13 589.443 3124.16 591.768C3121.29 592.697 3118.08 593.162 3114.52 593.162C3107.7 593.162 3101.96 591.961 3097.32 589.56C3097.32 591.574 3096.81 592.736 3095.81 593.046C3095.34 593.123 3094.8 593.162 3094.18 593.162V575.498H3098.13C3098.28 585.027 3102.97 589.831 3112.19 589.908Z" fill="white"/>
</g>
<g filter="url(#filter2_d_268_9)">
<path d="M2032 465L3276 465" stroke="white" stroke-width="15"/>
</g>
<defs>
<filter id="filter0_d_268_9" x="0.765625" y="102.031" width="3300.49" height="347.852" filterUnits="userSpaceOnUse" color-interpolation-filters="sRGB">
<feFlood flood-opacity="0" result="BackgroundImageFix"/>
<feColorMatrix in="SourceAlpha" type="matrix" values="0 0 0 0 0 0 0 0 0 0 0 0 0 0 0 0 0 0 127 0" result="hardAlpha"/>
<feOffset/>
<feGaussianBlur stdDeviation="12.5"/>
<feComposite in2="hardAlpha" operator="out"/>
<feColorMatrix type="matrix" values="0 0 0 0 0 0 0 0 0 0 0 0 0 0 0 0 0 0 1 0"/>
<feBlend mode="normal" in2="BackgroundImageFix" result="effect1_dropShadow_268_9"/>
<feBlend mode="normal" in="SourceGraphic" in2="effect1_dropShadow_268_9" result="shape"/>
</filter>
<filter id="filter1_d_268_9" x="2174.32" y="493.729" width="975.296" height="134.933" filterUnits="userSpaceOnUse" color-interpolation-filters="sRGB">
<feFlood flood-opacity="0" result="BackgroundImageFix"/>
<feColorMatrix in="SourceAlpha" type="matrix" values="0 0 0 0 0 0 0 0 0 0 0 0 0 0 0 0 0 0 127 0" result="hardAlpha"/>
<feOffset dx="5" dy="4"/>
<feGaussianBlur stdDeviation="5"/>
<feComposite in2="hardAlpha" operator="out"/>
<feColorMatrix type="matrix" values="0 0 0 0 0 0 0 0 0 0 0 0 0 0 0 0 0 0 1 0"/>
<feBlend mode="normal" in2="BackgroundImageFix" result="effect1_dropShadow_268_9"/>
<feBlend mode="normal" in="SourceGraphic" in2="effect1_dropShadow_268_9" result="shape"/>
</filter>
<filter id="filter2_d_268_9" x="2028" y="457.5" width="1252" height="23.0002" filterUnits="userSpaceOnUse" color-interpolation-filters="sRGB">
<feFlood flood-opacity="0" result="BackgroundImageFix"/>
<feColorMatrix in="SourceAlpha" type="matrix" values="0 0 0 0 0 0 0 0 0 0 0 0 0 0 0 0 0 0 127 0" result="hardAlpha"/>
<feOffset dy="4"/>
<feGaussianBlur stdDeviation="2"/>
<feComposite in2="hardAlpha" operator="out"/>
<feColorMatrix type="matrix" values="0 0 0 0 0 0 0 0 0 0 0 0 0 0 0 0 0 0 0.25 0"/>
<feBlend mode="normal" in2="BackgroundImageFix" result="effect1_dropShadow_268_9"/>
<feBlend mode="normal" in="SourceGraphic" in2="effect1_dropShadow_268_9" result="shape"/>
</filter>
</defs>
</svg>
